<?xml version="1.0" encoding="UTF-8" standalone="no"?>
<svg width="50px" height="50px" viewBox="0 0 50 50" version="1.1" xmlns="http://www.w3.org/2000/svg" xmlns:xlink="http://www.w3.org/1999/xlink">
    <!-- Generator: Sketch 40.3 (33839) - http://www.bohemiancoding.com/sketch -->
    <title>Glyph</title>
    <desc>Created with Sketch.</desc>
    <defs></defs>
    <g id="Page-1" stroke="none" stroke-width="1" fill="none" fill-rule="evenodd">
        <g id="Glyph">
            <g id="Group">
                <circle id="Oval" fill="#D8D8D8" cx="25" cy="25" r="25"></circle>
                <rect id="Rectangle-path" fill="#000000" x="17.7663012" y="20.5556563" width="3.80330048" height="3.74813212"></rect>
                <path d="M43.5811889,28.7498252 L43.0096078,28.7498252 C40.7941596,28.7498252 38.9902497,26.9847361 38.9902497,24.81423 C38.9902497,22.6437238 40.7930164,20.8775055 43.0096078,20.8775055 L43.5811889,20.8775055 L43.5811889,14.45746 L7,14.45746 L7,20.8775055 L7.57158108,20.8775055 C9.78702933,20.8775055 11.5909392,22.6437238 11.5909392,24.81423 C11.5909392,26.9847361 9.78817249,28.7498252 7.57158108,28.7498252 L7,28.7498252 L7,35.171 L43.5811889,35.171 L43.5811889,28.7498252 L43.5811889,28.7498252 Z M16.623139,19.4263607 L22.7127638,19.4263607 L22.7127638,25.433084 L16.623139,25.433084 L16.623139,19.4263607 L16.623139,19.4263607 Z M33.7705713,29.7955529 L15.9555323,29.7955529 L15.9555323,28.6662573 L33.7705713,28.6662573 L33.7705713,29.7955529 L33.7705713,29.7955529 Z M33.7705713,25.1936733 L26.429184,25.1936733 L26.429184,24.0643777 L33.7705713,24.0643777 L33.7705713,25.1936733 L33.7705713,25.1936733 Z M33.7705713,20.5906644 L26.429184,20.5906644 L26.429184,19.4613688 L33.7705713,19.4613688 L33.7705713,20.5906644 L33.7705713,20.5906644 Z" id="Shape" fill="#EA2E36"></path>
            </g>
        </g>
    </g>
</svg>
