<?xml version="1.0" encoding="UTF-8" standalone="no"?>
<svg width="32px" height="20px" viewBox="0 0 32 20" version="1.1" xmlns="http://www.w3.org/2000/svg" xmlns:xlink="http://www.w3.org/1999/xlink">
    <!-- Generator: Sketch 40.3 (33839) - http://www.bohemiancoding.com/sketch -->
    <title>Glyph</title>
    <desc>Created with Sketch.</desc>
    <defs></defs>
    <g id="Page-1" stroke="none" stroke-width="1" fill="none" fill-rule="evenodd">
        <g id="Glyph">
            <g id="Group">
                <rect id="Rectangle-path" fill="#000000" x="9.418" y="6.229" width="3.327" height="3.319"></rect>
                <path d="M32,13.485 L31.5,13.485 C29.562,13.485 27.984,11.922 27.984,10 C27.984,8.078 29.561,6.514 31.5,6.514 L32,6.514 L32,0.829 L0,0.829 L0,6.514 L0.5,6.514 C2.438,6.514 4.016,8.078 4.016,10 C4.016,11.922 2.439,13.485 0.5,13.485 L0,13.485 L0,19.171 L32,19.171 L32,13.485 L32,13.485 Z M8.418,5.229 L13.745,5.229 L13.745,10.548 L8.418,10.548 L8.418,5.229 L8.418,5.229 Z M23.418,14.411 L7.834,14.411 L7.834,13.411 L23.418,13.411 L23.418,14.411 L23.418,14.411 Z M23.418,10.336 L16.996,10.336 L16.996,9.336 L23.418,9.336 L23.418,10.336 L23.418,10.336 Z M23.418,6.26 L16.996,6.26 L16.996,5.26 L23.418,5.26 L23.418,6.26 L23.418,6.26 Z" id="Shape" fill="#EA2E36"></path>
            </g>
        </g>
    </g>
</svg>